<svg id="Layer_1" data-name="Layer 1" xmlns="http://www.w3.org/2000/svg" xmlns:xlink="http://www.w3.org/1999/xlink" viewBox="0 0 701.7 1444"><defs><style>.cls-1{fill:url(#radial-gradient);}.cls-2{fill:url(#radial-gradient-2);}.cls-3{fill:url(#radial-gradient-3);}.cls-4{fill:url(#radial-gradient-4);}.cls-5{fill:#e0dfdf;stroke:#747577;}.cls-5,.cls-6{stroke-miterlimit:10;stroke-width:4px;}.cls-6{fill:#070808;stroke:#989897;}.cls-7{fill:#12110f;}.cls-8{fill:#1e333a;}</style><radialGradient id="radial-gradient" cx="1224.05" cy="711.5" r="56.61" gradientTransform="translate(-221.2 -128) scale(0.75 1)" gradientUnits="userSpaceOnUse"><stop offset="0" stop-color="#fff"/><stop offset="0.17" stop-color="#ddd"/><stop offset="0.44" stop-color="#aaa"/><stop offset="0.68" stop-color="#858686"/><stop offset="0.88" stop-color="#6e6f6f"/><stop offset="1" stop-color="#666767"/></radialGradient><radialGradient id="radial-gradient-2" cx="5.96" cy="388.14" r="25" gradientTransform="matrix(1, 0, 0, 1, 0, 0)" xlink:href="#radial-gradient"/><radialGradient id="radial-gradient-3" cx="5.96" cy="511.05" r="36.56" gradientTransform="matrix(1, 0, 0, 1, 0, 0)" xlink:href="#radial-gradient"/><radialGradient id="radial-gradient-4" cx="5.96" cy="635.78" r="37.21" gradientTransform="matrix(1, 0, 0, 1, 0, 0)" xlink:href="#radial-gradient"/></defs><rect class="cls-1" x="692" y="503.7" width="9.6" height="159.59"/><rect class="cls-2" y="353.3" width="11.9" height="69.71"/><rect class="cls-3" y="459.7" width="11.9" height="102.73"/><rect class="cls-4" y="583.5" width="11.9" height="104.56"/><path class="cls-5" d="M1087.6,130H614.3A103.6,103.6,0,0,0,510.6,233.6V1466.4A103.6,103.6,0,0,0,614.3,1570h473.3a103.6,103.6,0,0,0,103.6-103.6V233.6A103.6,103.6,0,0,0,1087.6,130Zm80.7,1331.3a83.5,83.5,0,0,1-83.5,83.5H615.2a83.5,83.5,0,0,1-83.5-83.5V238.7a83.5,83.5,0,0,1,83.5-83.5h469.6a83.5,83.5,0,0,1,83.5,83.5Z" transform="translate(-499.2 -128)"/><path class="cls-6" d="M1090.3,141h-476a91.7,91.7,0,0,0-91.7,91.7V1464.5a91.6,91.6,0,0,0,91.7,91.7h476a91.6,91.6,0,0,0,91.7-91.7V232.7A91.7,91.7,0,0,0,1090.3,141Zm78,1320.3a83.5,83.5,0,0,1-83.5,83.5H615.2a83.5,83.5,0,0,1-83.5-83.5V238.7a83.5,83.5,0,0,1,83.5-83.5h469.6a83.5,83.5,0,0,1,83.5,83.5Z" transform="translate(-499.2 -128)"/><rect class="cls-7" x="259.6" y="50.2" width="187.1" height="57.78" rx="28.9"/><circle class="cls-8" cx="419.2" cy="79" r="14.2"/></svg>